<svg id="Laag_1" data-name="Laag 1" xmlns="http://www.w3.org/2000/svg" viewBox="0 0 67.25 59.25"><defs><style>.cls-1{fill:#fff;}</style></defs><title>Tekengebied 1dibitwhite</title><path id="_Samengesteld_pad_" data-name="&lt;Samengesteld pad&gt;" class="cls-1" d="M35.8,3.81a10.27,10.27,0,0,0-10.6,9h0v0a10.35,10.35,0,0,0-.08,1.26v9.06l2.5-2.34h0a10.27,10.27,0,1,0,8.19-17Zm0,15.92A5.67,5.67,0,1,1,41,14.43,5.67,5.67,0,0,1,35.75,19.73Z"/><path class="cls-1" d="M13.85,34.8V29a1.16,1.16,0,0,1,2.32,0V39.49a5.87,5.87,0,1,1-2.32-4.68Zm0,4.68v0A3.56,3.56,0,1,0,10.29,43,3.55,3.55,0,0,0,13.85,39.46Z"/><path class="cls-1" d="M22.1,31a1.16,1.16,0,1,1,1.64-1.64A1.16,1.16,0,0,1,22.1,31Zm-.35,13.26V34.82a1.16,1.16,0,0,1,2.32,0v9.44a1.16,1.16,0,1,1-2.32,0Z"/><path class="cls-1" d="M41.4,39.49a5.88,5.88,0,0,1-11.76,0V29A1.16,1.16,0,0,1,32,29V34.8a5.89,5.89,0,0,1,9.44,4.68Zm-2.32,0a3.56,3.56,0,0,0-7.12,0v0a3.56,3.56,0,1,0,7.12,0Z"/><path class="cls-1" d="M47.24,31a1.16,1.16,0,1,1,1.64-1.64A1.16,1.16,0,0,1,47.24,31Zm-.35,13.26V34.82a1.16,1.16,0,0,1,2.32,0v9.44a1.16,1.16,0,1,1-2.32,0Z"/><path class="cls-1" d="M62.74,34.82A1.17,1.17,0,0,1,61.57,36H59.91v8.27a1.16,1.16,0,1,1-2.32,0V36H55.9a1.17,1.17,0,0,1-1.15-1.17,1.15,1.15,0,0,1,1.15-1.15h1.69V29a1.16,1.16,0,0,1,2.32,0v4.68h1.66A1.15,1.15,0,0,1,62.74,34.82Z"/><path class="cls-1" d="M19.2,54.19V49.81h.19v4.38Z"/><path class="cls-1" d="M22.13,51.27a3.74,3.74,0,0,1,.65-.07c.5,0,.9.19.9.92,0,1-.3,1.42-1.09,1.42h-.73Zm.47,2.14c.65,0,.94-.32.94-1.3,0-.63-.34-.78-.74-.78a2.71,2.71,0,0,0-.54.06l-.25,2Z"/><path class="cls-1" d="M24.27,53.53l.28-2.3h.13l-.28,2.3Z"/><path class="cls-1" d="M26.08,53.57c-.51,0-.81-.27-.81-.92,0-1.13.55-1.46,1.11-1.46a1.33,1.33,0,0,1,.63.13l-.07.12a1.2,1.2,0,0,0-.56-.12c-.53,0-1,.31-1,1.34,0,.55.23.78.69.78a1.18,1.18,0,0,0,.66-.16l.09-.74h-.68l0-.13H27l-.12,1A1.42,1.42,0,0,1,26.08,53.57Z"/><path class="cls-1" d="M27.62,53.53l.28-2.3H28l-.28,2.3Z"/><path class="cls-1" d="M29.18,53.53l.27-2.17h-.71l0-.13h1.56l0,.13h-.71l-.27,2.17Z"/><path class="cls-1" d="M31.78,53.54l-.12-.61h-1l-.27.6h-.15l1-2.29.13,0,.48,2.3Zm-.42-2.13-.61,1.39h.89Z"/><path class="cls-1" d="M32.55,53.53l.28-2.3H33l-.27,2.17h1.15l0,.13Z"/><path class="cls-1" d="M35.93,53.53l.28-2.3h1.25l0,.13H36.33l-.11.88h.92l0,.13h-.89l-.12,1h1.11l0,.13Z"/><path class="cls-1" d="M39.36,53.56l-.59-1.11-.82,1.09h-.16l.91-1.21-.56-1.06.12,0,.53,1,.73-1h.16l-.82,1.1.62,1.18Z"/><path class="cls-1" d="M40.11,53.53l.28-2.27a2.45,2.45,0,0,1,.56-.07c.45,0,.82.2.82.71s-.41.83-.94.83a2.27,2.27,0,0,1-.48-.06l-.1.84Zm.71-.92c.42,0,.81-.15.81-.71s-.33-.59-.69-.59a1.81,1.81,0,0,0-.44.06l-.14,1.18A2.15,2.15,0,0,0,40.83,52.62Z"/><path class="cls-1" d="M42.21,53.53l.28-2.3h1.25l0,.13H42.61l-.11.88h.92l0,.13h-.89l-.12,1h1.11l0,.13Z"/><path class="cls-1" d="M45.53,53.55l-.4-.9h-.69l-.11.88H44.2l.28-2.27A2.44,2.44,0,0,1,45,51.2c.41,0,.79.14.79.66a.69.69,0,0,1-.57.76l.41.9Zm-.49-1a.61.61,0,0,0,.65-.67c0-.41-.32-.53-.65-.53a1.9,1.9,0,0,0-.44.06l-.14,1.15Z"/><path class="cls-1" d="M46.86,53.53l.27-2.17h-.71l0-.13H48l0,.13h-.71L47,53.53Z"/><path class="cls-1" d="M49.13,53.45c.31,0,.66-.07.66-.51,0-.28-.29-.41-.58-.5s-.6-.25-.6-.6.39-.64.76-.64a1.31,1.31,0,0,1,.59.14l-.06.11a1.27,1.27,0,0,0-.54-.12c-.32,0-.63.11-.63.51s.25.39.52.48.66.26.66.62c0,.52-.41.64-.8.64a1.29,1.29,0,0,1-.76-.23l.07-.11A1.22,1.22,0,0,0,49.13,53.45Z"/><path class="cls-1" d="M52.32,54.19V49.81h.19v4.38Z"/></svg>